%
M48
M72
T01C0.0236
T02C0.0400
T03C0.0866
%
T01
X4850Y5600
X10350Y5600
X10350Y11100
X10350Y16600
X10350Y22100
X4850Y22100
X4850Y16600
X4850Y11100
X15850Y11100
X15850Y16600
X15850Y22100
X21350Y22100
X21350Y16600
X21350Y11100
X21350Y5600
X15850Y5600
X26850Y5600
X26850Y11100
X26850Y16600
X26850Y22100
X21350Y27600
X15850Y27600
X10350Y27600
X4850Y27600
T02
X4850Y30100
X3850Y30100
X5850Y30100
X6850Y30100
X7850Y30100
X8850Y30100
X9850Y30100
X10850Y30100
X11850Y30100
X12850Y30100
X13850Y30100
X14850Y30100
X17350Y30100
X18350Y30100
X19350Y30100
X20350Y30100
X21350Y30100
X22350Y30100
X23350Y30100
X24350Y30100
X25350Y30100
X26350Y30100
X27350Y30100
X28350Y30100
T03
X1100Y1100
X1100Y30600
X30600Y30600
X30600Y1100
M30
